<?xml version="1.0" encoding="iso-8859-1"?>
<!-- Uploaded to: SVG Repo, www.svgrepo.com, Generator: SVG Repo Mixer Tools -->
<svg height="800px" width="800px" version="1.1" id="Layer_1" xmlns="http://www.w3.org/2000/svg" xmlns:xlink="http://www.w3.org/1999/xlink" 
	 viewBox="0 0 512 512" xml:space="preserve">
<g>
	<path style="fill:#546A79;" d="M410.483,0v414.782c0,34.074-27.727,61.793-61.793,61.793l-114.759,0.115
		c-34.066,0-61.793-27.727-61.793-61.793v-0.115v-79.334h-35.31v79.334v0.115c0,53.539,43.564,97.103,97.103,97.103l114.759-0.115
		c53.539,0,97.103-43.555,97.103-97.103V0H410.483z"/>
	<polygon style="fill:#38454F;" points="198.621,335.448 110.345,335.448 75.034,220.69 75.034,105.931 233.931,105.931 
		233.931,220.69 	"/>
	<path style="fill:#546A79;" d="M110.345,105.931c0,24.382,19.756,44.138,44.138,44.138s44.138-19.756,44.138-44.138H110.345z"/>
	<polygon style="fill:#BDC3C7;" points="119.172,0 119.172,70.621 136.828,70.621 136.828,105.931 172.138,105.931 172.138,70.621 
		189.793,70.621 189.793,0 	"/>
	<g>
		<polygon style="fill:#ECF0F1;" points="119.172,70.621 119.172,8.828 83.862,8.828 83.862,105.931 136.828,105.931 
			136.828,70.621 		"/>
		<polygon style="fill:#ECF0F1;" points="189.793,8.828 189.793,70.621 172.138,70.621 172.138,105.931 225.103,105.931 
			225.103,8.828 		"/>
	</g>
	<g>
		<path style="fill:#546A79;" d="M128,308.966H99.487c-4.882,0-8.828-3.946-8.828-8.828c0-4.882,3.946-8.828,8.828-8.828H128
			c4.882,0,8.828,3.946,8.828,8.828C136.828,305.02,132.882,308.966,128,308.966"/>
		<path style="fill:#546A79;" d="M209.483,308.966H180.97c-4.882,0-8.828-3.946-8.828-8.828c0-4.882,3.946-8.828,8.828-8.828h28.513
			c4.882,0,8.828,3.946,8.828,8.828C218.311,305.02,214.365,308.966,209.483,308.966"/>
		<path style="fill:#546A79;" d="M128,273.655H88.611c-4.882,0-8.828-3.946-8.828-8.828c0-4.882,3.946-8.828,8.828-8.828H128
			c4.882,0,8.828,3.946,8.828,8.828C136.828,269.709,132.882,273.655,128,273.655"/>
		<path style="fill:#546A79;" d="M220.353,273.655h-39.389c-4.882,0-8.828-3.946-8.828-8.828c0-4.882,3.946-8.828,8.828-8.828
			h39.389c4.882,0,8.828,3.946,8.828,8.828C229.181,269.709,225.235,273.655,220.353,273.655"/>
		<path style="fill:#546A79;" d="M128,238.345H77.753c-4.882,0-8.828-3.946-8.828-8.828c0-4.882,3.946-8.828,8.828-8.828H128
			c4.882,0,8.828,3.946,8.828,8.828C136.828,234.399,132.882,238.345,128,238.345"/>
		<path style="fill:#546A79;" d="M231.216,238.345h-50.247c-4.882,0-8.828-3.946-8.828-8.828c0-4.882,3.946-8.828,8.828-8.828
			h50.247c4.882,0,8.828,3.946,8.828,8.828C240.043,234.399,236.097,238.345,231.216,238.345"/>
		<path style="fill:#546A79;" d="M128,203.034H75.034c-4.882,0-8.828-3.946-8.828-8.828c0-4.882,3.946-8.828,8.828-8.828H128
			c4.882,0,8.828,3.946,8.828,8.828C136.828,199.089,132.882,203.034,128,203.034"/>
		<path style="fill:#546A79;" d="M233.931,203.034h-52.966c-4.882,0-8.828-3.946-8.828-8.828c0-4.882,3.946-8.828,8.828-8.828
			h52.966c4.882,0,8.828,3.946,8.828,8.828C242.759,199.089,238.813,203.034,233.931,203.034"/>
	</g>
</g>
</svg>